<svg width="40" height="40" viewBox="0 0 40 40" fill="none" xmlns="http://www.w3.org/2000/svg">
<g id="icon/navigation/apps_24px" opacity="0.7">
<rect width="40" height="40" fill="url(#paint0_linear)"/>
<path id="icon/navigation/apps_24px_2" fill-rule="evenodd" clip-rule="evenodd" d="M6.66675 13.3334H13.3334V6.66675H6.66675V13.3334ZM16.6667 33.3334H23.3334V26.6667H16.6667V33.3334ZM13.3334 33.3334H6.66675V26.6667H13.3334V33.3334ZM6.66675 23.3334H13.3334V16.6667H6.66675V23.3334ZM23.3334 23.3334H16.6667V16.6667H23.3334V23.3334ZM26.6667 6.66675V13.3334H33.3334V6.66675H26.6667ZM23.3334 13.3334H16.6667V6.66675H23.3334V13.3334ZM26.6667 23.3334H33.3334V16.6667H26.6667V23.3334ZM33.3334 33.3334H26.6667V26.6667H33.3334V33.3334Z" fill="white"/>
</g>
<defs>
<linearGradient id="paint0_linear" x1="0" y1="0" x2="40" y2="-2.40606e-07" gradientUnits="userSpaceOnUse">
<stop stop-color="#44270A"/>
<stop offset="0.5" stop-color="#563D13"/>
<stop offset="1" stop-color="#44270A"/>
</linearGradient>
</defs>
</svg>
